<svg xmlns="http://www.w3.org/2000/svg" width="70" height="59" fill="none">
  <path fill="#FDC305" d="M59.7434 23.8063c-1.7199-4.0971-4.4899-7.6745-8.0337-10.3758-3.5439-2.7012-7.738-4.432-12.1642-5.0196a25.688 25.688 0 0 0-13.0628 1.6702c-4.1327 1.682-7.7498 4.4114-10.4909 7.9162-2.7411 3.5048-4.5104 7.6626-5.1317 12.0591a25.2671 25.2671 0 0 0 1.5908 12.9981c1.6636 4.12 4.3842 7.7347 7.8907 10.4837 3.5066 2.749 7.6765 4.5364 12.0943 5.1841-.5787-2.0732-1.1674-4.3645-1.6862-6.7948a32.3087 32.3087 0 0 0 4.7492 2.5295s.1197 2.1425.2793 4.5331a25.5671 25.5671 0 0 0 5.3179-.4662 2.1081 2.1081 0 0 1 0-.7539c.2893-1.8549 1.0875-5.1977 1.2471-7.3502a15.1083 15.1083 0 0 0 2.8934-3.6801l-.0599.4365c-.5487 4.2256-1.6961 8.7389-2.3945 9.9887a5.5343 5.5343 0 0 1-.8281 1.1407 25.6455 25.6455 0 0 0 9.9176-4.7275c2.922-2.2722 5.312-5.1489 7.0043-8.4308a25.3177 25.3177 0 0 0 2.7962-10.5756 25.3027 25.3027 0 0 0-1.9288-10.7654Zm-1.4666 3.7594c-.439.4266-1.3469.7142-1.4966-.5753-.1497-1.2895-.1896-2.1921-.1896-2.1921s-1.9256-3.4024-2.6439-3.442c-.7184-.0397-5.8167 3.442-7.1636 4.9596-1.1674 1.2796-1.3968 1.1903-1.3968 3.442 0 1.6962.2195 8.1041.0997 13.0042l-8.1314 2.1525a64.1693 64.1693 0 0 1-7.7822 1.7061l-.9977-5.7829h-.1397L25.8709 27.774s-3.8013-1.4283-5.1981-1.8152a3.7716 3.7716 0 0 0-2.0873-.2673 3.7611 3.7611 0 0 0-1.9036.8922 5.033 5.033 0 0 0-1.2818 1.7224 5.0051 5.0051 0 0 0-.4443 2.0966 7.05 7.05 0 0 1 .4789 1.4383c.0499.4761-1.1972.4265-1.9954.4265s-.9179-1.4284-.2893-3.1048a22.571 22.571 0 0 1 1.8158-3.7098 11.7762 11.7762 0 0 1 2.0653-2.8667s.1397-.3372 1.2471-.238c1.1075.0992 7.2634.4265 7.2634.4265l.0499-2.2517a143.265 143.265 0 0 1 20.1938-1.3292v1.8153a22.576 22.576 0 0 1 8.1215-1.9839.9125.9125 0 0 1 .4332.0971.9062.9062 0 0 1 .335.2898c.3392.4265 2.4045 2.9758 2.644 3.3428a27.7427 27.7427 0 0 1 1.8258 2.9758 6.174 6.174 0 0 1-.868 1.8251v.0099Z"/>
  <path fill="#F06351" d="M56.3312 21.4951c.4689.5952.878 1.1209.9977 1.2796a27.7364 27.7364 0 0 1 1.8258 2.9758 6.1719 6.1719 0 0 1-.858 1.7656c-.439.4266-1.3469.7142-1.4966-.5753-.1496-1.2895-.2095-2.1425-.2095-2.1425s-1.9256-3.4024-2.6439-3.442c-.7184-.0397-5.8167 3.442-7.1637 4.9596-1.1673 1.2796-1.3968 1.1903-1.3968 3.442 0 1.4879.1696 6.5963.1297 11.1394 1.8059.1984 4.4598.6943 5.258 1.8648 0 0-.2893-7.1221 7.7922-3.3924 0 0 .2794-9.711 11.4339-7.2212-3.7919-4.4262-8.4403-8.0491-13.6688-10.6534ZM45.8252 19.1938a89.2124 89.2124 0 0 0-1.3968-16.3966s-.1496-1.2895-.868-.238a14.0838 14.0838 0 0 0-1.1973 3.9677 71.1292 71.1292 0 0 0-12.7907.3373c-.8181-2.7279-2.2149-3.9678-2.8834-3.6404-.6685.3273-.7483 3.2535-.7483 3.2535l-.3292 14.0457a143.275 143.275 0 0 1 20.2137-1.3292Z"/>
  <path fill="#E55645" d="M45.2458 46.7397c.1297-1.0613.1995-2.4699.2394-4.0272l-8.131 2.1525a64.1523 64.1523 0 0 1-7.7818 1.7557l1.1074 4.9597c0 .1091 0 .2182.0698.3273a32.3056 32.3056 0 0 0 4.7489 2.5294 42.3594 42.3594 0 0 0 6.864-4.0967V50.4a15.1127 15.1127 0 0 0 2.8833-3.6603Z"/>
  <path fill="#000" d="M31.927 16.0891c-.0499-.0992.9977.6745 1.4067.9126.4091.238.6086.4166.6086.5852 0 .1687-.2594.3373-.6185.3373-.3592 0-.9179-.1191-.9977-.2579-.0798-.1389.5986 0 .9378 0h.2893a8.0428 8.0428 0 0 1-1.6262-1.5772ZM39.4099 16.1982s-.9977 1.2697-1.0875 1.3292c-.0898.0595-.1696.3373.1896.2877a8.1119 8.1119 0 0 0 1.2171-.2778c.1098-.0595.0699-.1984-.1197-.1785-.1895.0198-.6784.0496-.9977.1091l.8481-1.2598s.0299-.119-.0499-.0099ZM36.277 22.2589a2.2899 2.2899 0 0 0 1.0875-.9919c.2793-.6547 0-.9027-.439-.992a2.4563 2.4563 0 0 0-1.7459.3373c-.3891.367-.3392.7241 0 .9919.337.2628.7056.4827 1.0974.6547Z"/>
  <path fill="#F06351" d="M35.9177 23.5087a2.0354 2.0354 0 0 1-.459.5952 1.7315 1.7315 0 0 1-.9976.3769 2.184 2.184 0 0 1-1.5364-.4364 1.9928 1.9928 0 0 1-.5288-.4464.9993.9993 0 0 0-.3592-.248s.7483 4.0769 2.5641 4.7315c1.8157.6547 2.1549-.7538 2.2048-1.1308a5.5591 5.5591 0 0 0-.8181-3.2138c0-.2976-.0199-.0992-.0698-.2282Z"/>
  <path fill="#000" d="M34.2216 24.6395a3.5043 3.5043 0 0 1-1.3183-.4706 3.4852 3.4852 0 0 1-1.0262-.9478.1486.1486 0 0 1 0-.1984.1394.1394 0 0 1 .1995 0c.2469.3444.5601.6366.9215.8596a3.2228 3.2228 0 0 0 1.1836.4398 2.1125 2.1125 0 0 0 .9382-.3001 2.0977 2.0977 0 0 0 .698-.6918l.1397-.1885.0997.2183s.3791.7538.9977.7935c.6186.0397 1.0575-.4166 1.6262-1.2796a.1444.1444 0 0 1 .1995-.0397.1422.1422 0 0 1 .0399.1984c-.6651.9721-1.2936 1.4383-1.8856 1.3986a1.5513 1.5513 0 0 1-.6412-.2361 1.5405 1.5405 0 0 1-.4761-.488 2.2511 2.2511 0 0 1-.7422.6567 2.263 2.263 0 0 1-.9539.2757Z"/>
  <path fill="#FDC305" d="M36.1771 37.9909c2.0662 0 3.7412-1.6654 3.7412-3.7197 0-2.0544-1.675-3.7198-3.7412-3.7198-2.0663 0-3.7413 1.6654-3.7413 3.7198 0 2.0543 1.675 3.7197 3.7413 3.7197Z"/>
  <path fill="#111" d="m41.1355 31.2458-3.1227 1.2994 1.1473-5.5845-7.4825 9.6812 3.1227-1.2994-1.1473 5.5945 7.4825-9.6912Zm-7.3728 3.7991 4.1503-5.3663-.8081 3.9677 1.9954-.8134-4.1803 5.3763.8082-3.9678-1.9655.8035ZM32.3659 33.5868c.6171 0 1.1174-.4974 1.1174-1.111 0-.6136-.5003-1.111-1.1174-1.111s-1.1174.4974-1.1174 1.111c0 .6136.5003 1.111 1.1174 1.111ZM38.871 37.614c.4353 0 .7882-.3509.7882-.7836 0-.4328-.3529-.7837-.7882-.7837-.4352 0-.7881.3509-.7881.7837 0 .4327.3529.7836.7881.7836ZM39.8288 35.4615c.1928 0 .3492-.1554.3492-.3472 0-.1917-.1564-.3471-.3492-.3471-.1929 0-.3492.1554-.3492.3471 0 .1918.1563.3472.3492.3472Z"/>
  <path fill="#F06351" d="M45.7753 20.9892a57.141 57.141 0 0 0-5.0784 5.168 31.744 31.744 0 0 1-5.2979 4.8605c-.2195-.5258-1.6263-1.5078-1.6263-1.5078s-3.1328-2.1326-5.1881-3.809a31.736 31.736 0 0 1-3.1329-2.9758l-1.9954-.1091c2.8805 4.1831 7.1003 7.2737 11.9726 8.7687.8581-.1389 3.2725-1.8549 5.0784-3.2536a57.3622 57.3622 0 0 0 5.9863-5.8623 6.318 6.318 0 0 0 1.1374-1.9838c-1.1374.3769-1.8557.7042-1.8557.7042Z"/>
  <path fill="#FDC305" d="m65.0708 3.4718-8.4403 9.3638-1.2172-1.974L63.5443 0l1.5265 3.4718ZM62.507 17.1207l5.5271-4.0768-.7782-3.7098-5.3874 4.7711.6385 3.0155ZM59.7833 48.9716l6.1157 3.1543 3.003-2.3211-6.6744-2.7278-2.4443 1.8946ZM1.9454 5.9218 5.0083 2.589l9.2683 8.9274-1.2171 2.2616-11.114-7.856ZM7.3629 16.1486l-4.689-3.1047-2.3945 3.8388 5.138 2.3806 1.9455-3.1147ZM13.878 52.1259l-4.5394 3.323L12.1321 59l4.0106-3.9876-2.2647-2.8865Z"/>
  <path fill="#F06351" d="M25.8708 27.774s-3.8013-1.4283-5.1981-1.8152a3.7711 3.7711 0 0 0-2.0872-.2673 3.7611 3.7611 0 0 0-1.9036.8922 5.0305 5.0305 0 0 0-1.2818 1.7224 5.0036 5.0036 0 0 0-.4443 2.0966 7.05 7.05 0 0 1 .4789 1.4383c.0499.4761-1.1973.4265-1.9954.4265-.7982 0-.9179-1.4284-.2894-3.1048a22.5715 22.5715 0 0 1 1.8159-3.7098C9.5282 28.27 0 34.7771 0 34.7771a45.9814 45.9814 0 0 1 8.1713.238c5.238.5258 4.9886 4.6323 4.9886 4.6323a38.7535 38.7535 0 0 1 5.6172-1.101c2.1151-.1389 2.2648 2.1029 2.2648 2.1029l.5288 3.8288a18.221 18.221 0 0 1 2.6439-2.3409 6.0707 6.0707 0 0 1 4.37-1.2895L25.8708 27.774Z"/>
</svg>
