<svg xmlns="http://www.w3.org/2000/svg" width="26" height="31" fill="none"><path fill="#fff" d="M5.538 0c-1.063 0-1.063 1.583 0 1.583h6.644v1.604C5.377 3.62 0 9.414 0 16.485c0 4.01 1.743 7.63 4.496 10.069.479.422.542 1.171.107 1.636L3.072 29.74c-.744.686.361 1.752 1.031 1.003l1.998-2.037c.351-.338.872-.422 1.308-.211a12.702 12.702 0 0 0 5.525 1.299 12.704 12.704 0 0 0 5.54-1.236 1.14 1.14 0 0 1 1.297.211l1.935 1.974c.68.633 1.658-.317 1.041-1.003l-1.445-1.477c-.447-.454-.383-1.203.106-1.636a13.462 13.462 0 0 0 3.403-4.583A13.376 13.376 0 0 0 26 16.475c0-7.071-5.41-12.876-12.224-13.288V1.583h6.643c1.063 0 1.063-1.583 0-1.583H5.538ZM1.435 16.475c0-6.533 5.177-11.82 11.565-11.82 6.378 0 11.554 5.287 11.554 11.82 0 6.543-5.176 11.841-11.554 11.841S1.435 23.018 1.435 16.475ZM12.192 8.38c0-1.098 1.658-1.098 1.658 0v8.633a.841.841 0 0 1-.249.597.853.853 0 0 1-.601.247.811.811 0 0 1-.568-.23.8.8 0 0 1-.24-.561V8.38Zm-4.974 2.617c.307 0 .602-.12.819-.337a1.146 1.146 0 0 0 .34-.813c0-.305-.123-.598-.34-.814a1.163 1.163 0 0 0-.82-.337 1.162 1.162 0 0 0-.746.372 1.146 1.146 0 0 0-.301.774c0 .286.107.561.3.773.194.212.46.344.747.372v.01Zm11.554 0c.307 0 .602-.12.82-.337a1.146 1.146 0 0 0 .338-.813c0-.305-.122-.598-.339-.814a1.163 1.163 0 0 0-.82-.337 1.161 1.161 0 0 0-.746.372 1.145 1.145 0 0 0-.301.774c0 .286.107.561.301.773.194.212.46.344.747.372v.01ZM8.376 23.588c0 1.53-2.317 1.53-2.317 0s2.317-1.53 2.317 0ZM13 27.028a1.162 1.162 0 0 0 .89-.293 1.153 1.153 0 0 0 .28-.386 1.145 1.145 0 0 0 0-.93 1.152 1.152 0 0 0-.28-.387 1.162 1.162 0 0 0-.89-.293 1.161 1.161 0 0 0-.747.371 1.146 1.146 0 0 0-.3.774c0 .286.107.561.3.773.194.212.46.344.747.372ZM4.91 16.645a1.143 1.143 0 0 1-.053.473 1.149 1.149 0 0 1-.242.41 1.158 1.158 0 0 1-.389.279 1.166 1.166 0 0 1-.937 0 1.158 1.158 0 0 1-.389-.279 1.149 1.149 0 0 1-.242-.41 1.143 1.143 0 0 1-.054-.473 1.147 1.147 0 0 1 .374-.742 1.163 1.163 0 0 1 1.559 0c.213.193.346.457.374.742Zm17.327 1.15a1.165 1.165 0 0 0 .89-.294 1.152 1.152 0 0 0 .28-.386 1.144 1.144 0 0 0-.28-1.317 1.159 1.159 0 0 0-.414-.24 1.166 1.166 0 0 0-.476-.053 1.162 1.162 0 0 0-.747.371 1.146 1.146 0 0 0-.3.774c0 .286.107.562.3.774.194.211.46.344.747.371Zm-2.307 5.805c0 1.52-2.317 1.52-2.317-.01s2.317-1.531 2.317 0v.01Z"/></svg>