<svg xmlns="http://www.w3.org/2000/svg" width="60" height="50" fill="none">
  <path fill="#FDC305" d="M51.2082 19.0509c-1.4742-3.6037-3.8485-6.7502-6.8861-9.126-3.0376-2.376-6.6325-3.8982-10.4264-4.415-3.794-.517-7.6544-.0105-11.1967 1.469-3.5423 1.4793-6.6427 3.88-8.9922 6.9626-2.3495 3.0827-3.8661 6.7397-4.3986 10.6066-.5326 3.8669-.0624 7.8087 1.3635 11.4325 1.426 3.6238 3.7579 6.803 6.7635 9.2209 3.0056 2.4179 6.5798 3.99 10.3665 4.5596-.496-1.8234-1.0006-3.8388-1.4453-5.9763a27.4578 27.4578 0 0 0 4.0707 2.2248s.1027 1.8845.2395 3.9871a21.3645 21.3645 0 0 0 4.5581-.4101 1.9076 1.9076 0 0 1 0-.663c.248-1.6315.9322-4.5717 1.069-6.4649a13.2434 13.2434 0 0 0 2.4801-3.2368l-.0513.3839c-.4704 3.7166-1.4539 7.6863-2.0525 8.7856a4.865 4.865 0 0 1-.7098 1.0033c3.0956-.7409 5.9962-2.1597 8.5008-4.1581 2.5046-1.9985 4.5531-4.5287 6.0037-7.4153 1.4505-2.8866 2.2683-6.0606 2.3967-9.3017.1284-3.2412-.4357-6.4721-1.6532-9.4687Zm-1.2571 3.3066c-.3763.3751-1.1545.6281-1.2828-.5061-.1283-1.1342-.1625-1.9281-.1625-1.9281s-1.6505-2.9925-2.2662-3.0274c-.6158-.0349-4.9858 3.0274-6.1403 4.3623-1.0006 1.1254-1.1972 1.0469-1.1972 3.0274 0 1.4919.1881 7.1279.0855 11.4378l-6.9698 1.8932a53.7974 53.7974 0 0 1-6.6705 1.5006l-.8552-5.0864h-.1197l-2.1978-11.4901s-3.2583-1.2564-4.4556-1.5966a3.1574 3.1574 0 0 0-1.7891-.2351 3.1888 3.1888 0 0 0-1.6316.7847 4.4185 4.4185 0 0 0-1.0987 1.515 4.4986 4.4986 0 0 0-.3808 1.844c.1808.4055.3184.8296.4105 1.265.0428.4188-1.0262.3752-1.7104.3752-.6841 0-.7867-1.2564-.248-2.7308a20.071 20.071 0 0 1 1.5565-3.263 10.3518 10.3518 0 0 1 1.7702-2.5213s.1197-.2967 1.069-.2094c.9492.0872 6.2258.3751 6.2258.3751l.0427-1.9804a119.7094 119.7094 0 0 1 17.309-1.1691v1.5966a18.9472 18.9472 0 0 1 6.9613-1.7449.7649.7649 0 0 1 .3713.0854.7823.7823 0 0 1 .2871.2548c.2908.3752 2.0611 2.6174 2.2663 2.9402a24.5095 24.5095 0 0 1 1.565 2.6173 5.493 5.493 0 0 1-.744 1.6053v.0088Z"/>
  <path fill="#F06351" d="M48.2839 17.0181c.402.5234.7526.9858.8552 1.1254a24.511 24.511 0 0 1 1.565 2.6174 5.4934 5.4934 0 0 1-.7354 1.5529c-.3763.3752-1.1545.6282-1.2828-.506-.1283-1.1342-.1796-1.8845-.1796-1.8845s-1.6505-2.9925-2.2663-3.0274c-.6157-.0349-4.9857 3.0274-6.1402 4.3623-1.0006 1.1254-1.1973 1.0469-1.1973 3.0274 0 1.3086.1454 5.8018.1112 9.7976 1.5479.1745 3.8227.6107 4.5068 1.6402 0 0-.248-6.2642 6.6791-2.9838 0 0 .2394-8.5413 9.8004-6.3514-3.2502-3.893-7.2345-7.0796-11.7161-9.3701ZM39.2788 14.994A80.4619 80.4619 0 0 0 38.0815.5724s-.1282-1.1342-.744-.2094a12.6298 12.6298 0 0 0-1.0262 3.4898 59.4239 59.4239 0 0 0-10.9635.2966C24.6465 1.7502 23.4493.6596 22.8763.9475c-.573.288-.6414 2.8617-.6414 2.8617l-.2822 12.3539a119.7175 119.7175 0 0 1 17.3261-1.1691Z"/>
  <path fill="#E55645" d="M38.7821 39.2219c.1112-.9335.171-2.1724.2053-3.5421l-6.9695 1.8932a53.8003 53.8003 0 0 1-6.6701 1.5442l.9492 4.3623c0 .096 0 .1919.0599.2879a27.4633 27.4633 0 0 0 4.0704 2.2247 36.1274 36.1274 0 0 0 5.8834-3.6032v.0524a13.243 13.243 0 0 0 2.4714-3.2194Z"/>
  <path fill="#000" d="M27.366 12.2632c-.0427-.0872.8552.5933 1.2058.8027.3506.2093.5216.3664.5216.5147 0 .1483-.2223.2966-.5302.2966-.3078 0-.7867-.1047-.8551-.2268-.0684-.1222.5131 0 .8038 0h.248a6.9794 6.9794 0 0 1-1.3939-1.3872ZM33.7799 12.3592s-.8552 1.1167-.9321 1.1691c-.077.0523-.1454.2966.1625.253a6.8094 6.8094 0 0 0 1.0432-.2443c.0941-.0524.0599-.1745-.1026-.1571-.1625.0175-.5815.0437-.8551.096l.7269-1.108s.0256-.1047-.0428-.0087ZM31.0946 17.6898c.3964-.1781.724-.4848.9321-.8724.2394-.5758 0-.7939-.3763-.8725a2.0612 2.0612 0 0 0-1.4965.2967c-.3335.3228-.2907.6369 0 .8724.2889.2311.6049.4246.9407.5758Z"/>
  <path fill="#F06351" d="M30.7866 18.7891a1.785 1.785 0 0 1-.3934.5235 1.4618 1.4618 0 0 1-.8551.3315 1.8376 1.8376 0 0 1-1.3169-.3838 1.7222 1.7222 0 0 1-.4533-.3926.8547.8547 0 0 0-.3078-.2182s.6413 3.5858 2.1977 4.1616c1.5564.5758 1.8471-.663 1.8899-.9946.0521-.9929-.1924-1.9786-.7012-2.8267 0-.2617-.0171-.0872-.0599-.2007Z"/>
  <path fill="#000" d="M29.3328 19.7837a2.9553 2.9553 0 0 1-1.1299-.4139 3.0163 3.0163 0 0 1-.8796-.8337.132.132 0 0 1-.0327-.0872.1322.1322 0 0 1 .0327-.0873.119.119 0 0 1 .0855-.0366.117.117 0 0 1 .0463.0095.1204.1204 0 0 1 .0392.0271 2.777 2.777 0 0 0 .7898.7561 2.7196 2.7196 0 0 0 1.0145.3868 1.7799 1.7799 0 0 0 .8042-.2639 1.8229 1.8229 0 0 0 .5983-.6085l.1197-.1658.0855.192s.325.663.8552.6979c.5301.0349.9064-.3664 1.3938-1.1254a.1232.1232 0 0 1 .0785-.0536.1211.1211 0 0 1 .0926.0187.126.126 0 0 1 .0525.08.1283.1283 0 0 1-.0183.0945c-.5701.855-1.1089 1.265-1.6162 1.2301a1.3089 1.3089 0 0 1-.5497-.2077 1.3396 1.3396 0 0 1-.4081-.4292 1.9458 1.9458 0 0 1-.6361.5776 1.9046 1.9046 0 0 1-.8177.2425Z"/>
  <path fill="#FDC305" d="M31.009 31.5269c1.771 0 3.2068-1.4648 3.2068-3.2717s-1.4358-3.2717-3.2068-3.2717c-1.7711 0-3.2068 1.4648-3.2068 3.2717s1.4357 3.2717 3.2068 3.2717Z"/>
  <path fill="#111" d="m35.259 25.5942-2.6766 1.143.9834-4.9119-6.4136 8.5151 2.6766-1.1429-.9834 4.9206 6.4136-8.5239Zm-6.3195 3.3415 3.5574-4.7199-.6927 3.4898 1.7103-.7154-3.5831 4.7286.6927-3.4898-1.6846.7067ZM27.7422 27.6532c.529 0 .9578-.4375.9578-.9771 0-.5397-.4288-.9772-.9578-.9772-.5289 0-.9577.4375-.9577.9772 0 .5396.4288.9771.9577.9771ZM33.3181 31.1954c.3731 0 .6756-.3086.6756-.6893 0-.3806-.3025-.6892-.6756-.6892s-.6756.3086-.6756.6892c0 .3807.3025.6893.6756.6893ZM34.1391 29.3022c.1653 0 .2993-.1368.2993-.3054s-.134-.3054-.2993-.3054-.2993.1368-.2993.3054.134.3054.2993.3054Z"/>
  <path fill="#F06351" d="M39.236 16.5731a49.68 49.68 0 0 0-4.3529 4.5455 27.4842 27.4842 0 0 1-4.541 4.275c-.1882-.4624-1.394-1.3261-1.394-1.3261s-2.6853-1.8758-4.447-3.3503a27.5265 27.5265 0 0 1-2.6853-2.6173l-1.7103-.096c2.4689 3.6793 6.086 6.3976 10.2622 7.7125.7355-.1222 2.805-1.6315 4.3529-2.8616a49.8088 49.8088 0 0 0 5.1312-5.1562 5.5965 5.5965 0 0 0 .9749-1.7449c-.9749.3315-1.5907.6194-1.5907.6194ZM22.175 22.5407s-3.2582-1.2564-4.4555-1.5966a3.1576 3.1576 0 0 0-1.7891-.2351 3.1894 3.1894 0 0 0-1.6317.7847 4.4182 4.4182 0 0 0-1.0986 1.515 4.4986 4.4986 0 0 0-.3808 1.844 6.323 6.323 0 0 1 .4105 1.265c.0427.4188-1.0263.3752-1.7104.3752-.6842 0-.7868-1.2564-.248-2.7308a20.079 20.079 0 0 1 1.5564-3.263C8.167 22.9769 0 28.7002 0 28.7002a38.4025 38.4025 0 0 1 7.004.2094c4.4897.4624 4.2759 4.0743 4.2759 4.0743a32.4664 32.4664 0 0 1 4.8147-.9684c1.813-.1222 1.9413 1.8496 1.9413 1.8496l.4533 3.3676a15.748 15.748 0 0 1 2.2662-2.0589c1.0557-.8622 2.3999-1.2692 3.7457-1.1342L22.175 22.5407Z"/>
</svg>
